 <svg version="1.0" xmlns="http://www.w3.org/2000/svg" width="700.000000pt" height="312.000000pt" viewBox="0 0 700.000000 312.000000" preserveAspectRatio="xMidYMid meet">
 	<g transform="translate(0.000000,312.000000) scale(0.100000,-0.100000)" fill="#000000" stroke="none">
 		<path style="fill:#fff;" d="M3230 3050 c-8 -4 -31 -14 -50 -21 -77 -29 -221 -202 -304 -364 -63
 			-125 -146 -348 -146 -395 0 -10 -4 -21 -9 -25 -5 -3 -15 -31 -21 -63 -6 -31
 			-15 -66 -20 -77 -11 -24 -40 -218 -40 -268 0 -20 -4 -39 -10 -42 -6 -4 -10
 			-58 -10 -130 0 -72 4 -126 10 -130 6 -3 10 -31 10 -62 0 -48 -4 -58 -30 -83
 			-30 -28 -42 -36 -153 -94 -92 -49 -126 -23 -142 106 -4 33 -3 77 4 105 6 26
 			18 111 27 188 8 77 20 144 25 150 17 17 9 98 -13 147 -17 34 -33 51 -59 63
 			-76 35 -176 -28 -241 -152 -14 -26 -32 -61 -41 -78 -9 -16 -18 -37 -21 -45 -3
 			-8 -10 -22 -15 -30 -5 -8 -14 -27 -20 -42 -7 -19 -18 -28 -32 -28 -22 0 -22 1
 			-14 113 14 196 7 237 -49 263 -42 21 -75 13 -119 -26 -23 -20 -38 -45 -46 -77
 			-7 -27 -19 -70 -26 -98 -8 -27 -19 -102 -26 -165 -7 -63 -17 -127 -23 -141
 			-13 -30 -122 -132 -186 -174 -60 -40 -231 -125 -250 -125 -9 0 -25 -6 -36 -14
 			-11 -8 -46 -19 -78 -25 -32 -6 -65 -16 -73 -23 -9 -7 -64 -12 -161 -12 -135
 			-1 -151 1 -199 23 -57 26 -109 83 -124 134 -12 43 -11 153 2 199 15 56 106
 			150 176 181 77 35 149 47 323 57 80 4 146 8 147 9 16 9 33 72 33 120 0 109
 			-41 151 -195 200 -109 34 -114 36 -197 74 -42 20 -65 38 -85 69 -25 39 -28 52
 			-28 130 l0 87 50 51 c27 27 56 50 65 50 9 0 27 8 40 18 22 15 49 17 201 17
 			118 0 181 -4 190 -12 8 -6 37 -14 64 -18 28 -4 69 -16 92 -26 23 -11 48 -19
 			56 -19 8 0 27 -10 42 -22 26 -20 27 -25 21 -76 -4 -31 -11 -61 -16 -67 -14
 			-17 -15 -102 -1 -119 23 -28 66 -19 133 28 85 60 113 111 106 193 -3 34 -16
 			80 -31 109 -51 101 -207 215 -334 245 -143 33 -328 47 -408 30 -27 -5 -79 -15
 			-115 -21 -66 -11 -82 -17 -180 -62 -106 -49 -201 -145 -249 -252 -29 -62 -29
 			-202 -1 -265 11 -24 20 -50 20 -58 0 -25 152 -167 190 -178 69 -20 45 -68 -45
 			-89 -16 -4 -63 -23 -104 -43 -134 -64 -248 -201 -267 -322 -4 -23 -11 -44 -15
 			-47 -12 -7 -12 -191 0 -198 5 -3 12 -23 16 -43 23 -122 162 -255 320 -305 101
 			-32 289 -41 430 -20 109 16 176 30 189 41 6 5 27 12 46 16 45 9 253 110 288
 			140 38 32 67 45 96 45 21 0 26 -6 32 -36 4 -21 22 -52 44 -75 31 -33 43 -39
 			78 -39 48 0 96 36 124 92 9 18 55 114 103 213 48 99 90 187 94 195 5 8 19 15
 			32 15 l24 0 7 -185 c3 -102 9 -197 13 -212 4 -15 25 -48 47 -73 37 -42 43 -45
 			87 -45 75 0 141 25 341 132 51 27 92 24 113 -10 48 -78 107 -122 164 -122 53
 			0 156 25 188 46 12 8 45 17 73 21 47 5 54 3 86 -25 24 -21 51 -33 83 -38 59
 			-9 175 10 226 36 21 11 43 20 49 20 6 0 33 16 59 35 67 48 94 46 148 -9 62
 			-64 128 -90 208 -83 46 3 75 12 103 31 43 28 69 33 88 14 26 -26 8 -54 -111
 			-176 -117 -120 -221 -248 -259 -316 -52 -95 -91 -185 -96 -221 -2 -22 -9 -46
 			-15 -53 -7 -9 -6 -25 1 -50 6 -20 14 -50 17 -67 10 -46 100 -127 158 -142 60
 			-16 151 -16 202 0 112 35 215 144 255 272 7 22 16 45 20 50 10 13 30 131 30
 			173 0 18 4 40 9 50 5 9 14 74 20 144 7 88 15 134 26 152 17 26 90 83 141 109
 			16 8 57 40 91 71 62 57 99 70 110 39 14 -39 45 -72 73 -78 49 -11 90 29 130
 			125 5 14 14 32 18 40 13 22 31 57 64 120 33 65 61 111 106 173 17 25 32 48 32
 			52 0 3 25 38 57 76 42 52 61 69 77 67 24 -3 34 -41 17 -62 -11 -14 -45 -104
 			-62 -166 -12 -45 -12 -196 0 -235 26 -84 77 -153 138 -184 66 -34 224 9 346
 			95 26 19 51 34 55 34 4 0 29 20 55 43 l47 44 0 66 c0 52 3 67 14 67 19 0 24
 			-9 41 -72 33 -125 119 -251 190 -278 39 -15 154 -12 203 5 66 23 207 93 265
 			131 28 19 56 34 62 34 6 0 27 14 48 31 l37 30 0 114 c0 143 -7 151 -78 92 -78
 			-65 -180 -137 -193 -137 -7 0 -20 -6 -28 -14 -25 -23 -101 -48 -156 -53 -60
 			-5 -104 19 -132 69 -16 29 -18 59 -17 251 l1 217 31 40 c18 21 32 43 32 48 0
 			4 13 20 28 35 l28 27 207 0 206 0 36 35 c40 41 43 57 15 103 l-20 32 -102 1
 			c-132 0 -182 9 -186 32 -2 10 23 71 56 136 33 64 65 144 72 177 7 32 17 63 22
 			68 11 13 10 113 -1 120 -4 3 -11 26 -14 51 -8 57 -48 137 -83 164 -33 26 -81
 			35 -140 26 -69 -10 -153 -98 -222 -233 -28 -57 -52 -111 -52 -122 0 -10 -4
 			-21 -9 -24 -5 -3 -12 -23 -16 -43 -4 -21 -13 -51 -20 -68 -8 -16 -19 -59 -26
 			-95 -14 -74 -32 -122 -51 -137 -7 -6 -66 -13 -130 -15 -107 -4 -120 -7 -155
 			-31 -22 -15 -51 -27 -65 -27 -15 0 -30 -4 -33 -10 -3 -5 -15 -10 -25 -10 -10
 			0 -32 -11 -48 -25 -17 -14 -35 -25 -41 -25 -7 0 -74 -63 -151 -140 -128 -130
 			-170 -161 -170 -126 0 8 54 122 120 254 65 132 122 253 126 268 3 16 12 38 20
 			50 7 12 20 48 30 80 9 32 20 64 23 69 4 6 13 30 20 55 6 25 16 54 20 65 5 11
 			14 64 21 117 13 102 3 205 -24 238 -31 39 -66 61 -114 70 -222 42 -421 -173
 			-514 -555 -11 -44 -27 -118 -37 -165 -9 -47 -20 -92 -23 -100 -4 -8 -9 -46
 			-12 -85 -14 -180 -24 -281 -30 -295 -3 -8 -10 -94 -15 -190 -8 -159 -11 -179
 			-32 -213 -36 -57 -116 -155 -181 -220 -47 -47 -63 -58 -85 -55 l-28 3 3 90 c3
 			107 20 262 32 290 15 37 30 138 30 207 0 37 6 77 12 88 10 16 10 24 0 40 -6
 			11 -12 30 -12 43 0 41 -39 66 -114 76 -37 4 -71 12 -74 17 -4 6 -22 21 -41 34
 			-98 68 -293 -27 -407 -196 -40 -61 -114 -206 -114 -226 0 -7 -6 -22 -14 -33
 			-7 -11 -19 -45 -26 -75 -8 -30 -17 -59 -21 -65 -4 -5 -10 -31 -14 -57 -5 -34
 			-16 -57 -40 -81 -67 -69 -173 -98 -209 -58 -27 30 -17 158 30 376 4 17 10 35
 			14 40 4 6 13 33 20 60 7 28 17 55 22 61 11 16 28 97 35 170 5 60 4 62 -26 84
 			-27 18 -36 20 -59 11 -15 -5 -46 -15 -69 -21 -63 -16 -93 -62 -120 -179 -29
 			-130 -51 -213 -63 -233 -5 -9 -15 -47 -21 -85 -7 -37 -16 -72 -21 -78 -4 -5
 			-8 -21 -8 -35 0 -32 -36 -67 -108 -103 -77 -38 -112 -43 -144 -18 -20 17 -28
 			34 -33 74 -13 104 15 186 146 422 21 39 53 97 71 130 17 33 41 78 53 100 53
 			97 110 214 125 255 13 37 21 46 43 48 23 3 30 -2 42 -31 55 -132 260 -144 337
 			-19 18 29 23 51 22 100 0 54 -4 66 -28 91 -56 58 -187 66 -262 15 -54 -37 -68
 			-27 -60 43 4 31 11 62 16 68 5 6 14 60 20 120 19 181 -9 269 -100 315 -41 21
 			-75 25 -100 10z m2124 -247 c9 -23 -3 -137 -20 -188 -7 -22 -20 -69 -29 -105
 			-9 -36 -20 -69 -25 -75 -4 -5 -11 -26 -15 -45 -4 -19 -16 -51 -26 -70 -11 -19
 			-19 -39 -19 -43 0 -5 -6 -23 -14 -40 -8 -18 -21 -52 -29 -77 -8 -25 -22 -59
 			-30 -75 -34 -69 -57 -122 -65 -150 -11 -39 -52 -49 -51 -13 1 57 68 429 79
 			443 4 5 11 30 15 55 4 25 12 54 19 65 7 11 18 40 26 65 16 50 84 186 106 211
 			8 8 14 20 14 25 0 32 53 45 64 17z m-2144 -97 c0 -18 -4 -36 -9 -41 -4 -6 -14
 			-44 -20 -85 -7 -41 -21 -94 -31 -118 -11 -25 -20 -50 -20 -56 0 -6 -6 -23 -14
 			-37 -7 -14 -16 -39 -20 -55 -6 -29 -15 -50 -103 -229 -38 -77 -54 -101 -71
 			-103 -13 -2 -22 2 -22 10 0 37 22 185 29 203 5 11 15 49 21 85 6 36 18 79 25
 			95 7 17 17 46 21 65 3 19 15 51 25 70 11 19 19 42 19 50 0 9 20 47 45 84 25
 			38 45 73 45 77 0 4 12 14 28 22 34 17 52 5 52 -37z m3222 -53 c11 -10 18 -30
 			18 -52 0 -38 -20 -123 -37 -156 -5 -11 -20 -42 -32 -70 -13 -27 -28 -59 -34
 			-70 -6 -11 -22 -42 -36 -69 -29 -54 -50 -72 -75 -63 -20 8 -21 48 -2 90 7 18
 			19 59 26 92 23 114 78 248 120 293 25 26 28 27 52 5z m-530 -638 c63 -12 63
 			-11 59 -284 -1 -135 -5 -248 -7 -250 -2 -3 -10 1 -16 7 -23 23 -43 11 -115
 			-62 -44 -44 -94 -84 -126 -100 -112 -54 -144 -27 -133 112 4 50 16 106 27 131
 			10 24 19 48 19 54 0 5 15 33 34 61 18 28 41 74 51 101 10 28 22 55 26 60 4 6
 			10 44 14 85 9 107 6 103 73 97 31 -3 74 -9 94 -12z m-1627 -166 c7 -22 -21
 			-204 -35 -231 -5 -9 -14 -56 -21 -105 -6 -48 -15 -92 -20 -97 -5 -6 -9 -19 -9
 			-30 -1 -33 -53 -119 -80 -133 -62 -32 -120 -4 -140 68 -14 49 -11 138 6 184 8
 			22 19 51 23 65 30 93 182 283 233 293 13 2 26 5 30 6 4 0 10 -8 13 -20z m-95
 			-1186 c-1 -120 -93 -358 -150 -388 -29 -15 -74 -12 -85 5 -19 30 77 256 142
 			337 18 23 33 45 33 49 0 13 33 44 47 44 9 0 13 -14 13 -47z"></path>
 		</g>
 	</svg>